Coordinates
version=1
nRows=14
nColumns=38
inDegrees=no

Units are S.I. units (second, meters, Newtons, ...)
If the header above contains a line with 'inDegrees', this indicates whether rotational values are in degrees (yes) or radians (no).

endheader
time	pelvis_tilt	pelvis_list	pelvis_rotation	pelvis_tx	pelvis_ty	pelvis_tz	hip_flexion_r	hip_adduction_r	hip_rotation_r	knee_angle_r	ankle_angle_r	subtalar_angle_r	mtp_angle_r	hip_flexion_l	hip_adduction_l	hip_rotation_l	knee_angle_l	ankle_angle_l	subtalar_angle_l	mtp_angle_l	lumbar_extension	lumbar_bending	lumbar_rotation	arm_flex_r	arm_add_r	arm_rot_r	elbow_flex_r	pro_sup_r	wrist_flex_r	wrist_dev_r	arm_flex_l	arm_add_l	arm_rot_l	elbow_flex_l	pro_sup_l	wrist_flex_l	wrist_dev_l
4.89	3.02495	1.34337	1.63657	0.735082	1.28472	1.01876	0.417492	-0.0631249	0.179846	0.457103	-0.136298	0	0	0.213248	0.0558351	-0.11326	0.24672	-0.21841	0	0	-0.316206	-0.0211723	0.218831	0.547034	-0.678638	0.405318	0.940675	0.758589	0	0	1.01359	-0.100854	1.5708	0.44611	0.49914	0	0
4.9	3.02561	1.33872	1.63714	0.735752	1.28346	1.01836	0.423704	-0.0637988	0.1819	0.462846	-0.135722	0	0	0.21817	0.0565214	-0.110991	0.248912	-0.21748	0	0	-0.310653	-0.0208846	0.218127	0.533036	-0.673444	0.388374	0.943726	0.770472	0	0	1.00923	-0.103365	1.5708	0.452544	0.504659	0	0
4.91	3.02519	1.33404	1.63922	0.736417	1.28221	1.01793	0.43027	-0.0646703	0.184412	0.46949	-0.134937	0	0	0.223103	0.0574585	-0.108314	0.250965	-0.216748	0	0	-0.3049	-0.0207986	0.217546	0.518171	-0.668429	0.36941	0.947073	0.783209	0	0	1.00514	-0.106113	1.5708	0.460549	0.510272	0	0
4.92	3.02349	1.33017	1.64286	0.737045	1.28101	1.01746	0.436456	-0.0657587	0.187318	0.47739	-0.133707	0	0	0.22745	0.0586949	-0.105768	0.253566	-0.215806	0	0	-0.299957	-0.0214909	0.217354	0.502596	-0.663223	0.347778	0.949826	0.797077	0	0	1.00142	-0.108483	1.5708	0.469049	0.515833	0	0
4.93	3.02151	1.32625	1.64691	0.737687	1.27983	1.01693	0.44308	-0.0668788	0.19062	0.486372	-0.131694	0	0	0.231994	0.060095	-0.103444	0.256402	-0.214427	0	0	-0.295373	-0.0220516	0.217053	0.486341	-0.657802	0.324036	0.95306	0.815428	0	0	0.997412	-0.111453	1.5708	0.478407	0.521894	0	0
4.94	3.01933	1.32288	1.65123	0.738347	1.27867	1.01645	0.449307	-0.0679752	0.193982	0.495629	-0.12958	0	0	0.235734	0.0615783	-0.101282	0.25866	-0.213231	0	0	-0.291716	-0.0225033	0.216663	0.470463	-0.6529	0.301409	0.956531	0.833837	0	0	0.993164	-0.114523	1.5708	0.487596	0.52705	0	0
4.95	3.01695	1.31971	1.6558	0.738988	1.27753	1.01598	0.45559	-0.0689348	0.197348	0.505259	-0.127412	0	0	0.238997	0.063185	-0.0991774	0.260438	-0.212208	0	0	-0.288332	-0.0229659	0.216555	0.454303	-0.648409	0.27905	0.960697	0.852236	0	0	0.988859	-0.117237	1.5708	0.497001	0.532326	0	0
4.96	3.01379	1.31671	1.66123	0.739613	1.27634	1.01552	0.46182	-0.0699973	0.200604	0.51522	-0.125096	0	0	0.241782	0.0651159	-0.0973153	0.261811	-0.211317	0	0	-0.284939	-0.0235528	0.216865	0.437668	-0.644508	0.256658	0.965974	0.870212	0	0	0.98492	-0.119143	1.5708	0.506626	0.538702	0	0
4.97	3.0102	1.31377	1.66703	0.740198	1.27509	1.01508	0.467948	-0.0711311	0.203813	0.525261	-0.122713	0	0	0.244073	0.0672397	-0.095775	0.262652	-0.210417	0	0	-0.281416	-0.0242346	0.217642	0.420919	-0.640855	0.233609	0.972028	0.887077	0	0	0.981445	-0.120247	1.5708	0.51573	0.545591	0	0
4.98	3.00657	1.31064	1.67265	0.740743	1.27376	1.01464	0.474306	-0.072166	0.207305	0.535402	-0.120481	0	0	0.246099	0.0693886	-0.0946423	0.262758	-0.209703	0	0	-0.277701	-0.0250222	0.218542	0.404547	-0.637223	0.210582	0.978624	0.903117	0	0	0.978391	-0.121378	1.5708	0.524081	0.552157	0	0
4.99	3.00231	1.30324	1.6786	0.741156	1.27245	1.01383	0.486639	-0.0731837	0.21268	0.549156	-0.114016	0	0	0.252822	0.0721417	-0.0923642	0.263344	-0.209275	0	0	-0.26974	-0.0264946	0.221615	0.379116	-0.624058	0.15894	0.987706	0.993165	0	0	0.974206	-0.119254	1.5708	0.527473	0.572774	0	0
5	3.00024	1.29976	1.68237	0.741622	1.27109	1.01344	0.493637	-0.0734988	0.217261	0.560304	-0.113001	0	0	0.254697	0.0738929	-0.0910107	0.262275	-0.209724	0	0	-0.265994	-0.0269263	0.223705	0.363901	-0.620604	0.136137	0.993662	1.01177	0	0	0.970704	-0.115558	1.5708	0.526844	0.580317	0	0
5.01	2.99934	1.29682	1.68505	0.742032	1.26975	1.01311	0.500227	-0.0731777	0.222313	0.571877	-0.112362	0	0	0.256008	0.0751992	-0.0890846	0.261213	-0.209923	0	0	-0.263043	-0.0276483	0.225977	0.3497	-0.616646	0.113907	0.998303	1.02766	0	0	0.967631	-0.110947	1.5708	0.524937	0.587169	0	0
5.02	2.99909	1.29359	1.68729	0.74243	1.26836	1.01278	0.50714	-0.0726063	0.227452	0.583639	-0.111895	0	0	0.25741	0.0763284	-0.0869394	0.259772	-0.210274	0	0	-0.259754	-0.0283343	0.228162	0.336367	-0.612299	0.0931608	1.00255	1.0409	0	0	0.964318	-0.105923	1.5708	0.521893	0.594667	0	0
